<svg id="Layer_1" data-name="Layer 1" xmlns="http://www.w3.org/2000/svg" viewBox="0 0 200 200"><defs><style>.cls-1{fill:#fff;}</style></defs><title>POWERSCALE-HERO-ICON</title><path class="cls-1" d="M60.47,44.92,78.94,55.58l-19.62,34h7L84.79,57.49h54.06l15.6,27,2.91,5h7l-21.8-37.76-8.09-14H57.63L27.74,89.55h7ZM131,43.81l4.42,7.65H83.86L70.61,43.81Z"/><path class="cls-1" d="M138.85,151.13H84.79l-15.6-27-2.91-5h-7l19.62,34L60.47,163.7,37.62,124.11l-2.92-5h-7l29.7,51.44.19.32h76.8l29.89-51.76h-7ZM70.61,164.8l13.25-7.65h51.51L131,164.8Z"/><path class="cls-1" d="M14,88.5H1.93l-.36.37v24.89l.36.36h4.4l.36-.36v-9.52l.37-.37h7c5.13,0,8.79-2.56,8.79-7.68S19.14,88.5,14,88.5Zm0,11H7.06l-.37-.37V93.26l.37-.37h7c2.2,0,3.66.74,3.66,3.3S16.21,99.48,14,99.48Z"/><path class="cls-1" d="M42.21,105c0-5.86-3.66-9.51-9.15-9.51s-9.15,3.65-9.15,9.51,3.66,9.52,9.15,9.52S42.21,110.83,42.21,105ZM29,105c0-3.29,1.47-5.12,4-5.12s4,1.83,4,5.12-1.47,5.13-4,5.13S29,108.27,29,105Z"/><polygon class="cls-1" points="66.38 96.19 63.45 106.44 63.09 106.44 60.16 96.19 59.79 95.82 55.03 95.82 54.67 96.19 51.74 106.44 51.37 106.44 48.44 96.19 48.08 95.82 44.78 95.82 44.42 96.19 44.42 99.85 48.81 113.75 49.18 114.12 53.93 114.12 54.3 113.75 57.23 102.78 57.59 102.78 60.52 113.75 60.89 114.12 65.65 114.12 66.01 113.75 70.41 99.85 70.41 96.19 70.04 95.82 66.75 95.82 66.38 96.19"/><path class="cls-1" d="M89.82,106.8l.36-.36V105c0-5.12-2.92-9.51-8.78-9.51s-8.79,4.39-8.79,9.51,2.93,9.52,9.16,9.52c5.49,0,7.32-3.3,7.68-5.49l-.36-.37h-4.4l-.36.37a2.87,2.87,0,0,1-2.56,1.1c-2.93,0-3.66-2.2-3.66-2.93l.36-.37Zm-8.42-7a3.09,3.09,0,0,1,3.29,2.93l-.36.36H78.47l-.36-.36A3.09,3.09,0,0,1,81.4,99.85Z"/><path class="cls-1" d="M99,97.28h-.37l-.37-1.09-.36-.37h-4l-.36.37v17.57l.36.36h4.39l.37-.36V105c0-3.29,1.1-4.76,4-4.76h2.56l.37-.36V96.19l-.37-.37H103C99.71,95.82,99,97.28,99,97.28Z"/><path class="cls-1" d="M118.75,110.1c-4.39,0-5.85-1.47-5.85-4l-.37-.37h-4.39l-.37.37c0,4.76,3.3,8.42,10.61,8.42,7.69,0,10.62-3.66,10.62-7.69,0-5.12-4-7.32-9.15-8s-6.59-1.47-6.59-3.66c0-1.46,1.1-2.56,4.39-2.56,4,0,5.13,1.1,5.13,3.29l.36.37h4.39l.37-.37c0-4.39-2.93-7.68-9.88-7.68s-9.88,3.29-9.88,7c0,5.12,4,7,9.15,7.69s6.58,1.46,6.58,4C123.87,109,122,110.1,118.75,110.1Z"/><path class="cls-1" d="M140.72,99.85c1.83,0,2.93.73,3.3,1.83l.36.36h4.4l.36-.36c-.73-4.4-4.39-6.22-8.42-6.22-5.48,0-9.15,3.65-9.15,9.51s3.67,9.52,9.15,9.52c4,0,7.69-1.83,8.42-6.22l-.36-.37h-4.4l-.36.37c-.37,1.09-1.47,1.83-3.3,1.83-2.56,0-4-1.83-4-5.13S138.16,99.85,140.72,99.85Z"/><path class="cls-1" d="M159.77,95.46c-5.86,0-7.69,3.29-7.69,5.49l.37.36h4.39l.36-.36c.37-1.1,1.47-1.1,2.57-1.1,2.19,0,2.56.36,2.56,2.19v.37l-.37.37a8.77,8.77,0,0,0-2.56-.37c-2.93,0-8.05.73-8.05,6.22,0,3.66,2.56,5.86,6.59,5.86a6,6,0,0,0,4-1.47h.37l.36.74.37.36h4l.37-.36v-9.89C167.45,98.38,165.62,95.46,159.77,95.46Zm2.56,12.07c0,1.47-1.46,2.57-3.29,2.57s-2.57-.74-2.57-1.83c0-1.47,1.1-2.2,3.3-2.2a5.24,5.24,0,0,1,2.19.37l.37.36Z"/><polygon class="cls-1" points="171.86 88.5 171.49 88.87 171.49 113.75 171.86 114.12 176.25 114.12 176.61 113.75 176.61 88.87 176.25 88.5 171.86 88.5"/><path class="cls-1" d="M188.7,95.46c-5.86,0-8.79,4.39-8.79,9.51s2.93,9.52,9.15,9.52c5.49,0,7.32-3.3,7.69-5.49l-.37-.37H192l-.37.37a2.84,2.84,0,0,1-2.56,1.1c-2.93,0-3.66-2.2-3.66-2.93l.37-.37h11.35l.36-.36V105C197.48,99.85,194.55,95.46,188.7,95.46Zm2.92,7.68h-5.85l-.37-.36a3.32,3.32,0,0,1,6.59,0Z"/></svg>